<svg width="19" height="20" viewBox="0 0 19 20" fill="none" xmlns="http://www.w3.org/2000/svg">
<path d="M10.375 10.175L12.3438 12.425C12.5042 12.6083 12.5844 12.8377 12.5844 13.113C12.5844 13.3877 12.5042 13.625 12.3438 13.825C12.1687 14.025 11.9611 14.125 11.7207 14.125C11.4798 14.125 11.2719 14.025 11.0969 13.825L9.2375 11.7C9.03333 11.4667 8.88021 11.2083 8.77812 10.925C8.67604 10.6417 8.625 10.3333 8.625 10V7C8.625 6.71667 8.709 6.479 8.877 6.287C9.04442 6.09567 9.25208 6 9.5 6C9.74792 6 9.95588 6.09567 10.1239 6.287C10.2913 6.479 10.375 6.71667 10.375 7V10.175ZM9.5 2C9.74792 2 9.95588 2.09567 10.1239 2.287C10.2913 2.479 10.375 2.71667 10.375 3C10.375 3.28333 10.2913 3.521 10.1239 3.713C9.95588 3.90433 9.74792 4 9.5 4C9.25208 4 9.04442 3.90433 8.877 3.713C8.709 3.521 8.625 3.28333 8.625 3C8.625 2.71667 8.709 2.479 8.877 2.287C9.04442 2.09567 9.25208 2 9.5 2ZM16.5 10C16.5 10.2833 16.416 10.5207 16.248 10.712C16.0806 10.904 15.8729 11 15.625 11C15.3771 11 15.1694 10.904 15.002 10.712C14.834 10.5207 14.75 10.2833 14.75 10C14.75 9.71667 14.834 9.479 15.002 9.287C15.1694 9.09567 15.3771 9 15.625 9C15.8729 9 16.0806 9.09567 16.248 9.287C16.416 9.479 16.5 9.71667 16.5 10ZM9.5 16C9.74792 16 9.95588 16.096 10.1239 16.288C10.2913 16.4793 10.375 16.7167 10.375 17C10.375 17.2833 10.2913 17.5207 10.1239 17.712C9.95588 17.904 9.74792 18 9.5 18C9.25208 18 9.04442 17.904 8.877 17.712C8.709 17.5207 8.625 17.2833 8.625 17C8.625 16.7167 8.709 16.4793 8.877 16.288C9.04442 16.096 9.25208 16 9.5 16ZM4.25 10C4.25 10.2833 4.16629 10.5207 3.99887 10.712C3.83087 10.904 3.62292 11 3.375 11C3.12708 11 2.91913 10.904 2.75113 10.712C2.58371 10.5207 2.5 10.2833 2.5 10C2.5 9.71667 2.58371 9.479 2.75113 9.287C2.91913 9.09567 3.12708 9 3.375 9C3.62292 9 3.83087 9.09567 3.99887 9.287C4.16629 9.479 4.25 9.71667 4.25 10ZM9.5 20C8.28958 20 7.15208 19.7373 6.0875 19.212C5.02292 18.6873 4.09688 17.975 3.30938 17.075C2.52188 16.175 1.89858 15.1167 1.4395 13.9C0.979833 12.6833 0.75 11.3833 0.75 10C0.75 8.61667 0.979833 7.31667 1.4395 6.1C1.89858 4.88333 2.52188 3.825 3.30938 2.925C4.09688 2.025 5.02292 1.31233 6.0875 0.787C7.15208 0.262333 8.28958 0 9.5 0C10.7104 0 11.8479 0.262333 12.9125 0.787C13.9771 1.31233 14.9031 2.025 15.6906 2.925C16.4781 3.825 17.1014 4.88333 17.5605 6.1C18.0202 7.31667 18.25 8.61667 18.25 10C18.25 11.3833 18.0202 12.6833 17.5605 13.9C17.1014 15.1167 16.4781 16.175 15.6906 17.075C14.9031 17.975 13.9771 18.6873 12.9125 19.212C11.8479 19.7373 10.7104 20 9.5 20ZM9.5 18C11.4542 18 13.1094 17.225 14.4656 15.675C15.8219 14.125 16.5 12.2333 16.5 10C16.5 7.76667 15.8219 5.875 14.4656 4.325C13.1094 2.775 11.4542 2 9.5 2C7.54583 2 5.89062 2.775 4.53437 4.325C3.17812 5.875 2.5 7.76667 2.5 10C2.5 12.2333 3.17812 14.125 4.53437 15.675C5.89062 17.225 7.54583 18 9.5 18Z" fill="black"/>
</svg>
