<svg width="32" height="32" viewBox="0 0 32 32" fill="none" xmlns="http://www.w3.org/2000/svg">
<path d="M18.2408 26.9251C16.7208 28.5084 14.9791 30.1392 12.9999 31.8334C4.56075 24.6292 0.333252 18.4067 0.333252 13.1501C0.333252 5.26508 6.34992 0.166748 12.9999 0.166748C19.3333 0.166748 25.0966 4.79008 25.6191 12.0417H31.2083L24.0833 19.1667L16.9583 12.0417H22.4524C21.9458 6.88008 17.9558 3.33341 12.9999 3.33341C7.69575 3.33341 3.49992 7.40258 3.49992 13.1501C3.49992 16.8551 6.58742 21.7634 12.9999 27.6217C14.0133 26.6876 14.9474 25.7851 15.8024 24.9142C15.5238 24.3645 15.3774 23.7572 15.3749 23.1409C15.3749 22.0911 15.792 21.0843 16.5343 20.3419C17.2766 19.5996 18.2834 19.1826 19.3333 19.1826C20.3831 19.1826 21.3899 19.5996 22.1322 20.3419C22.8745 21.0843 23.2916 22.0911 23.2916 23.1409C23.291 23.7532 23.148 24.3569 22.8738 24.9044C22.5996 25.4518 22.2017 25.9279 21.7117 26.2951C21.2217 26.6622 20.653 26.9102 20.0506 27.0196C19.4481 27.1289 18.8285 27.0966 18.2408 26.9251Z" fill="white"/>
</svg>
